{
    "accessors" : [
        {
            "bufferView" : 0, 
            "componentType" : 5121, 
            "count" : 42, 
            "max" : [
                17
            ], 
            "min" : [
                0
            ], 
            "type" : "SCALAR"
        }, 
        {
            "bufferView" : 1, 
            "componentType" : 5126, 
            "count" : 18, 
            "max" : [
                2.5, 
                -0.5, 
                -0.0
            ], 
            "min" : [
                -2.5, 
                -2.5, 
                -0.0
            ], 
            "type" : "VEC3"
        }, 
        {
            "bufferView" : 2, 
            "componentType" : 5126, 
            "count" : 18, 
            "max" : [
                0.0, 
                -0.0, 
                -0.9999999403953552
            ], 
            "min" : [
                0.0, 
                -0.0, 
                -1.0
            ], 
            "type" : "VEC3"
        }, 
        {
            "bufferView" : 3, 
            "componentType" : 5126, 
            "count" : 18, 
            "max" : [
                1.0, 
                -0.0, 
                0.0, 
                1.0
            ], 
            "min" : [
                1.0, 
                -0.0, 
                0.0, 
                1.0
            ], 
            "type" : "VEC4"
        }, 
        {
            "bufferView" : 4, 
            "componentType" : 5126, 
            "count" : 18, 
            "max" : [
                1.0, 
                1.0
            ], 
            "min" : [
                0.0, 
                0.0
            ], 
            "type" : "VEC2"
        }, 
        {
            "bufferView" : 5, 
            "componentType" : 5123, 
            "count" : 18, 
            "max" : [
                0, 
                3, 
                4, 
                5
            ], 
            "min" : [
                0, 
                1, 
                2, 
                3
            ], 
            "type" : "VEC4"
        }, 
        {
            "bufferView" : 6, 
            "componentType" : 5126, 
            "count" : 18, 
            "max" : [
                0.8854395151138306, 
                0.7917115092277527, 
                0.6659563183784485, 
                0.48878660798072815
            ], 
            "min" : [
                0.0010654919315129519, 
                0.01948988065123558, 
                0.00601535988971591, 
                0.0016933080041781068
            ], 
            "type" : "VEC4"
        }, 
        {
            "bufferView" : 7, 
            "componentType" : 5126, 
            "count" : 6, 
            "max" : [
                1.0, 
                0.0, 
                0.0, 
                0.0, 
                0.0, 
                0.0, 
                1.0, 
                0.0, 
                0.0, 
                -1.0, 
                0.0, 
                0.0, 
                2.0, 
                0.0, 
                2.0, 
                1.0
            ], 
            "min" : [
                1.0, 
                0.0, 
                0.0, 
                0.0, 
                0.0, 
                0.0, 
                1.0, 
                0.0, 
                0.0, 
                -1.0, 
                0.0, 
                0.0, 
                -2.0, 
                0.0, 
                1.0, 
                1.0
            ], 
            "type" : "MAT4"
        }, 
        {
            "bufferView" : 8, 
            "componentType" : 5126, 
            "count" : 25, 
            "max" : [
                1.0
            ], 
            "min" : [
                0.0
            ], 
            "type" : "SCALAR"
        }, 
        {
            "bufferView" : 9, 
            "componentType" : 5126, 
            "count" : 25, 
            "max" : [
                1.0, 
                0.0, 
                0.0
            ], 
            "min" : [
                1.0, 
                0.0, 
                0.0
            ], 
            "type" : "VEC3"
        }, 
        {
            "bufferView" : 10, 
            "componentType" : 5126, 
            "count" : 25, 
            "max" : [
                1.0
            ], 
            "min" : [
                0.0
            ], 
            "type" : "SCALAR"
        }, 
        {
            "bufferView" : 11, 
            "componentType" : 5126, 
            "count" : 25, 
            "max" : [
                0.0, 
                0.7071068286895752, 
                0.0, 
                1.0
            ], 
            "min" : [
                0.0, 
                0.0, 
                0.0, 
                0.7071067094802856
            ], 
            "type" : "VEC4"
        }, 
        {
            "bufferView" : 12, 
            "componentType" : 5126, 
            "count" : 25, 
            "max" : [
                1.0
            ], 
            "min" : [
                0.0
            ], 
            "type" : "SCALAR"
        }, 
        {
            "bufferView" : 13, 
            "componentType" : 5126, 
            "count" : 25, 
            "max" : [
                1.0000001192092896, 
                1.0, 
                1.0000001192092896
            ], 
            "min" : [
                0.9999998211860657, 
                0.9999999403953552, 
                0.9999998211860657
            ], 
            "type" : "VEC3"
        }, 
        {
            "bufferView" : 14, 
            "componentType" : 5126, 
            "count" : 25, 
            "max" : [
                1.0
            ], 
            "min" : [
                0.0
            ], 
            "type" : "SCALAR"
        }, 
        {
            "bufferView" : 15, 
            "componentType" : 5126, 
            "count" : 25, 
            "max" : [
                -2.0, 
                0.0, 
                0.0
            ], 
            "min" : [
                -2.0, 
                0.0, 
                0.0
            ], 
            "type" : "VEC3"
        }, 
        {
            "bufferView" : 16, 
            "componentType" : 5126, 
            "count" : 25, 
            "max" : [
                1.0
            ], 
            "min" : [
                0.0
            ], 
            "type" : "SCALAR"
        }, 
        {
            "bufferView" : 17, 
            "componentType" : 5126, 
            "count" : 25, 
            "max" : [
                0.7071068286895752, 
                -1.5454311608209537e-08, 
                1.5454313384566376e-08, 
                1.0
            ], 
            "min" : [
                0.0, 
                -2.1855694143368964e-08, 
                0.0, 
                0.7071067094802856
            ], 
            "type" : "VEC4"
        }, 
        {
            "bufferView" : 18, 
            "componentType" : 5126, 
            "count" : 25, 
            "max" : [
                1.0
            ], 
            "min" : [
                0.0
            ], 
            "type" : "SCALAR"
        }, 
        {
            "bufferView" : 19, 
            "componentType" : 5126, 
            "count" : 25, 
            "max" : [
                1.0, 
                1.0000001192092896, 
                1.0
            ], 
            "min" : [
                0.9999999403953552, 
                0.9999998211860657, 
                0.9999998807907104
            ], 
            "type" : "VEC3"
        }
    ], 
    "animations" : [
        {
            "channels" : [
                {
                    "name" : "Armature_joint2_ArmatureAction_translation", 
                    "sampler" : 0, 
                    "target" : {
                        "node" : 6, 
                        "path" : "translation"
                    }
                }, 
                {
                    "name" : "Armature_joint2_ArmatureAction_rotation", 
                    "sampler" : 1, 
                    "target" : {
                        "node" : 6, 
                        "path" : "rotation"
                    }
                }, 
                {
                    "name" : "Armature_joint2_ArmatureAction_scale", 
                    "sampler" : 2, 
                    "target" : {
                        "node" : 6, 
                        "path" : "scale"
                    }
                }, 
                {
                    "name" : "Armature_joint5_ArmatureAction_translation", 
                    "sampler" : 3, 
                    "target" : {
                        "node" : 9, 
                        "path" : "translation"
                    }
                }, 
                {
                    "name" : "Armature_joint5_ArmatureAction_rotation", 
                    "sampler" : 4, 
                    "target" : {
                        "node" : 9, 
                        "path" : "rotation"
                    }
                }, 
                {
                    "name" : "Armature_joint5_ArmatureAction_scale", 
                    "sampler" : 5, 
                    "target" : {
                        "node" : 9, 
                        "path" : "scale"
                    }
                }
            ], 
            "samplers" : [
                {
                    "input" : 8, 
                    "interpolation" : "LINEAR", 
                    "name" : "joint2_ArmatureAction_translation", 
                    "output" : 9
                }, 
                {
                    "input" : 10, 
                    "interpolation" : "LINEAR", 
                    "name" : "joint2_ArmatureAction_rotation", 
                    "output" : 11
                }, 
                {
                    "input" : 12, 
                    "interpolation" : "LINEAR", 
                    "name" : "joint2_ArmatureAction_scale", 
                    "output" : 13
                }, 
                {
                    "input" : 14, 
                    "interpolation" : "LINEAR", 
                    "name" : "joint5_ArmatureAction_translation", 
                    "output" : 15
                }, 
                {
                    "input" : 16, 
                    "interpolation" : "LINEAR", 
                    "name" : "joint5_ArmatureAction_rotation", 
                    "output" : 17
                }, 
                {
                    "input" : 18, 
                    "interpolation" : "LINEAR", 
                    "name" : "joint5_ArmatureAction_scale", 
                    "output" : 19
                }
            ]
        }
    ], 
    "asset" : {
        "generator" : "Khronos Blender glTF 2.0 exporter", 
        "version" : "2.0"
    }, 
    "bufferViews" : [
        {
            "buffer" : 0, 
            "byteLength" : 42, 
            "byteOffset" : 0, 
            "target" : 34963
        }, 
        {
            "buffer" : 0, 
            "byteLength" : 216, 
            "byteOffset" : 44, 
            "target" : 34962
        }, 
        {
            "buffer" : 0, 
            "byteLength" : 216, 
            "byteOffset" : 260, 
            "target" : 34962
        }, 
        {
            "buffer" : 0, 
            "byteLength" : 288, 
            "byteOffset" : 476, 
            "target" : 34962
        }, 
        {
            "buffer" : 0, 
            "byteLength" : 144, 
            "byteOffset" : 764, 
            "target" : 34962
        }, 
        {
            "buffer" : 0, 
            "byteLength" : 144, 
            "byteOffset" : 908, 
            "target" : 34962
        }, 
        {
            "buffer" : 0, 
            "byteLength" : 288, 
            "byteOffset" : 1052, 
            "target" : 34962
        }, 
        {
            "buffer" : 0, 
            "byteLength" : 384, 
            "byteOffset" : 1340
        }, 
        {
            "buffer" : 0, 
            "byteLength" : 100, 
            "byteOffset" : 1724
        }, 
        {
            "buffer" : 0, 
            "byteLength" : 300, 
            "byteOffset" : 1824
        }, 
        {
            "buffer" : 0, 
            "byteLength" : 100, 
            "byteOffset" : 2124
        }, 
        {
            "buffer" : 0, 
            "byteLength" : 400, 
            "byteOffset" : 2224
        }, 
        {
            "buffer" : 0, 
            "byteLength" : 100, 
            "byteOffset" : 2624
        }, 
        {
            "buffer" : 0, 
            "byteLength" : 300, 
            "byteOffset" : 2724
        }, 
        {
            "buffer" : 0, 
            "byteLength" : 100, 
            "byteOffset" : 3024
        }, 
        {
            "buffer" : 0, 
            "byteLength" : 300, 
            "byteOffset" : 3124
        }, 
        {
            "buffer" : 0, 
            "byteLength" : 100, 
            "byteOffset" : 3424
        }, 
        {
            "buffer" : 0, 
            "byteLength" : 400, 
            "byteOffset" : 3524
        }, 
        {
            "buffer" : 0, 
            "byteLength" : 100, 
            "byteOffset" : 3924
        }, 
        {
            "buffer" : 0, 
            "byteLength" : 300, 
            "byteOffset" : 4024
        }
    ], 
    "buffers" : [
        {
            "byteLength" : 4324, 
            "uri" : "EmaSimpleSkin_blender.bin"
        }
    ], 
    "cameras" : [
        {
            "name" : "Camera", 
            "perspective" : {
                "aspectRatio" : 1.703595982340029, 
                "yfov" : 0.5033799409866333, 
                "zfar" : 100.0, 
                "znear" : 0.10000000149011612
            }, 
            "type" : "perspective"
        }
    ], 
    "meshes" : [
        {
            "name" : "pPlaneShape1", 
            "primitives" : [
                {
                    "attributes" : {
                        "JOINTS_0" : 5, 
                        "NORMAL" : 2, 
                        "POSITION" : 1, 
                        "TANGENT" : 3, 
                        "TEXCOORD_0" : 4, 
                        "WEIGHTS_0" : 6
                    }, 
                    "indices" : 0
                }
            ]
        }
    ], 
    "nodes" : [
        {
            "children" : [
                4, 
                5
            ], 
            "name" : "Armature", 
            "rotation" : [
                0.7071068286895752, 
                0.0, 
                -0.0, 
                0.7071067094802856
            ]
        }, 
        {
            "camera" : 0, 
            "name" : "Correction_Camera", 
            "rotation" : [
                -0.7071067690849304, 
                -0.0, 
                0.0, 
                0.7071067690849304
            ]
        }, 
        {
            "children" : [
                1
            ], 
            "name" : "Camera", 
            "rotation" : [
                0.483536034822464, 
                0.33687159419059753, 
                -0.20870360732078552, 
                0.7804827094078064
            ], 
            "translation" : [
                7.481131553649902, 
                5.34366512298584, 
                6.5076398849487305
            ]
        }, 
        {
            "name" : "Lamp", 
            "rotation" : [
                0.16907575726509094, 
                0.7558802962303162, 
                -0.27217137813568115, 
                0.570947527885437
            ], 
            "scale" : [
                1.0, 
                1.0, 
                0.9999999403953552
            ], 
            "translation" : [
                4.076245307922363, 
                5.903861999511719, 
                -1.0054539442062378
            ]
        }, 
        {
            "mesh" : 0, 
            "name" : "pPlane1", 
            "skin" : 0
        }, 
        {
            "children" : [
                6, 
                8
            ], 
            "name" : "Armature_joint1", 
            "rotation" : [
                -0.7071068286895752, 
                0.0, 
                0.0, 
                0.7071068286895752
            ], 
            "translation" : [
                0.0, 
                -2.0, 
                0.0
            ]
        }, 
        {
            "children" : [
                7
            ], 
            "name" : "Armature_joint2", 
            "translation" : [
                1.0, 
                0.0, 
                0.0
            ]
        }, 
        {
            "name" : "Armature_joint3", 
            "translation" : [
                1.0, 
                0.0, 
                0.0
            ]
        }, 
        {
            "children" : [
                9
            ], 
            "name" : "Armature_joint4", 
            "translation" : [
                0.0, 
                0.0, 
                1.0
            ]
        }, 
        {
            "children" : [
                10
            ], 
            "name" : "Armature_joint5", 
            "rotation" : [
                0.0, 
                -2.1855694143368964e-08, 
                0.0, 
                1.0
            ], 
            "scale" : [
                1.0, 
                0.9999999403953552, 
                1.0
            ], 
            "translation" : [
                -2.0, 
                0.0, 
                0.0
            ]
        }, 
        {
            "name" : "Armature_joint6", 
            "translation" : [
                0.0, 
                0.0, 
                -1.0
            ]
        }
    ], 
    "scene" : 0, 
    "scenes" : [
        {
            "name" : "Scene", 
            "nodes" : [
                0, 
                3, 
                2
            ]
        }
    ], 
    "skins" : [
        {
            "inverseBindMatrices" : 7, 
            "joints" : [
                5, 
                6, 
                7, 
                8, 
                9, 
                10
            ], 
            "skeleton" : 0
        }
    ]
}
